<svg width="18" height="18" viewBox="0 0 18 18" fill="none" xmlns="http://www.w3.org/2000/svg">
<g clip-path="url(#clip0)">
<path d="M8.29764 3.99939L0.287559 12.0096C0.102145 12.1949 -8.06437e-08 12.4422 -6.91167e-08 12.7059C-5.75898e-08 12.9696 0.102145 13.2169 0.287559 13.4022L0.87731 13.9921C1.2616 14.3759 1.88618 14.3759 2.26988 13.9921L8.99627 7.2657L15.7301 13.9996C15.9155 14.1848 16.1627 14.2871 16.4263 14.2871C16.6901 14.2871 16.9373 14.1848 17.1228 13.9995L17.7124 13.4097C17.8979 13.2242 18 12.9771 18 12.7134C18 12.4497 17.8979 12.2023 17.7124 12.0171L9.69504 3.99939C9.50904 3.81368 9.26071 3.71168 8.99671 3.71227C8.73169 3.71168 8.48349 3.81368 8.29764 3.99939Z" fill="white"/>
</g>
<defs>
<clipPath id="clip0">
<rect width="18" height="18" fill="white" transform="translate(0 18) rotate(-90)"/>
</clipPath>
</defs>
</svg>
