<svg width="46" height="42" viewBox="0 0 46 42" fill="none" xmlns="http://www.w3.org/2000/svg">
<path d="M33.7812 0.695312C31.2851 0.695312 28.9966 1.4863 26.9794 3.04634C25.0456 4.54197 23.758 6.44693 23 7.83214C22.242 6.44684 20.9544 4.54197 19.0206 3.04634C17.0034 1.4863 14.7149 0.695312 12.2188 0.695312C5.25298 0.695312 0 6.39293 0 13.9485C0 22.1112 6.55347 27.696 16.4746 36.1505C18.1593 37.5863 20.0689 39.2138 22.0538 40.9494C22.3154 41.1785 22.6514 41.3047 23 41.3047C23.3486 41.3047 23.6846 41.1785 23.9462 40.9495C25.9312 39.2136 27.8408 37.5862 29.5265 36.1496C39.4465 27.696 46 22.1112 46 13.9485C46 6.39293 40.747 0.695312 33.7812 0.695312Z" fill="white" fill-opacity="0.5"/>
</svg>
